<svg id="SvgjsSvg1001" width="288" height="288" xmlns="http://www.w3.org/2000/svg" version="1.1" xmlns:xlink="http://www.w3.org/1999/xlink" xmlns:svgjs="http://svgjs.com/svgjs"><defs id="SvgjsDefs1002"></defs><g id="SvgjsG1008" transform="matrix(1,0,0,1,0,0)"><svg xmlns="http://www.w3.org/2000/svg" viewBox="0 0 820.42 555.49" width="288" height="288" version="1.1" xmlns:xlink="http://www.w3.org/1999/xlink" xmlns:svgjs="http://svgjs.com/svgjs"><g class="layer"></g><path fill="#303133" d="M544.65 1.39c36.02 0 71.68 7.15 104.95 21.04s63.51 34.25 88.97 59.93c25.47 25.67 45.66 56.14 59.45 89.69a275.73 277.17 0 0 1 20.88 105.8c0 111.82-66.82 212.62-169.3 255.41s-220.44 19.14-298.87-59.93-101.9-197.97-59.45-301.28C333.73 68.74 433.73 1.39 544.66 1.39zm0 359.39c10.81.01 21.51-2.12 31.5-6.28s19.06-10.27 26.71-17.98 13.7-16.85 17.84-26.92a82.7 83.13 0 0 0 6.24-31.76c0-33.55-20.05-63.79-50.79-76.63s-66.13-5.74-89.66 17.98-30.57 59.39-17.84 90.39 42.74 51.2 76.01 51.2h-.01z" class="color303133 svgShape"></path><path fill="#3f51b5" d="M237.52 209.36c-68.44 20.18-149.22 0-149.22 0 23.44 104.87 97.79 170.55 205 178.54 23.11 55.22 28.23 52.16 43.57 73.46 7.66 9.91 24.79 26.43 47.66 43.19 21.83 14.71 53.57 30.55 78.6 38.22s51.02 11.56 77.15 11.55l-80.81-263.14C376.4 20.71 333.82 2.39 136.82 2.39H1.56C24.18 104.5 102.17 182.5 237.52 209.36h.01z" class="colordc2656 svgShape"></path></svg></g></svg>